{
  "accessors": [
    {
      "bufferView": 2,
      "componentType": 5126,
      "count": 6416,
      "max": [
        70.17640686035156,
        16.74802589416504,
        60.468101501464844
      ],
      "min": [
        -70.17640686035156,
        -13.345271110534668,
        0.006118513643741608
      ],
      "type": "VEC3"
    },
    {
      "bufferView": 2,
      "byteOffset": 76992,
      "componentType": 5126,
      "count": 6416,
      "max": [
        1.0,
        1.0,
        0.9999284744262695
      ],
      "min": [
        -1.0,
        -1.0,
        -1.0
      ],
      "type": "VEC3"
    },
    {
      "bufferView": 1,
      "componentType": 5126,
      "count": 6416,
      "max": [
        1.9609375,
        0.99560546875
      ],
      "min": [
        0.003589630126953125,
        0.006793975830078125
      ],
      "type": "VEC2"
    },
    {
      "bufferView": 0,
      "componentType": 5125,
      "count": 28218,
      "type": "SCALAR"
    },
    {
      "bufferView": 2,
      "byteOffset": 153984,
      "componentType": 5126,
      "count": 2936,
      "max": [
        37.77851104736328,
        24.276443481445313,
        111.36326599121094
      ],
      "min": [
        -37.77851104736328,
        -35.264244079589844,
        44.85919189453125
      ],
      "type": "VEC3"
    },
    {
      "bufferView": 2,
      "byteOffset": 189216,
      "componentType": 5126,
      "count": 2936,
      "max": [
        1.0,
        1.0,
        0.99988853931427
      ],
      "min": [
        -1.0,
        -1.0,
        -0.9998766779899597
      ],
      "type": "VEC3"
    },
    {
      "bufferView": 1,
      "byteOffset": 51328,
      "componentType": 5126,
      "count": 2936,
      "max": [
        1.248046875,
        0.93115234375
      ],
      "min": [
        0.0021457672119140625,
        0.0021457672119140625
      ],
      "type": "VEC2"
    },
    {
      "bufferView": 0,
      "byteOffset": 112872,
      "componentType": 5125,
      "count": 14034,
      "type": "SCALAR"
    }
  ],
  "asset": {
    "extras": {
      "author": "SMF Friends Fan 2024 YouTube Live (https://sketchfab.com/cherylhill28)",
      "license": "CC-BY-4.0 (http://creativecommons.org/licenses/by/4.0/)",
      "source": "https://sketchfab.com/3d-models/spongebob-goofy-goober-rock-872aa4dfac254dd48bf0c68952ea9744",
      "title": "SpongeBob (Goofy Goober Rock)"
    },
    "generator": "Sketchfab-16.31.0",
    "version": "2.0"
  },
  "bufferViews": [
    {
      "buffer": 0,
      "byteLength": 169008,
      "name": "floatBufferViews",
      "target": 34963
    },
    {
      "buffer": 0,
      "byteLength": 74816,
      "byteOffset": 169008,
      "byteStride": 8,
      "name": "floatBufferViews",
      "target": 34962
    },
    {
      "buffer": 0,
      "byteLength": 224448,
      "byteOffset": 243824,
      "byteStride": 12,
      "name": "floatBufferViews",
      "target": 34962
    }
  ],
  "buffers": [
    {
      "byteLength": 468272,
      "uri": "scene.bin"
    }
  ],
  "extensionsUsed": [
    "KHR_materials_unlit"
  ],
  "images": [
    {
      "uri": "textures/SpongeBob_Expressions_Mat_baseColor.png"
    },
    {
      "uri": "textures/SpongeBob_Mat_baseColor.png"
    }
  ],
  "materials": [
    {
      "doubleSided": true,
      "extensions": {
        "KHR_materials_unlit": {}
      },
      "name": "SpongeBob_Expressions_Mat",
      "pbrMetallicRoughness": {
        "baseColorTexture": {
          "index": 0
        },
        "metallicFactor": 0.0
      }
    },
    {
      "doubleSided": true,
      "extensions": {
        "KHR_materials_unlit": {}
      },
      "name": "SpongeBob_Mat",
      "pbrMetallicRoughness": {
        "baseColorTexture": {
          "index": 1
        },
        "metallicFactor": 0.0
      }
    }
  ],
  "meshes": [
    {
      "name": "Object_0",
      "primitives": [
        {
          "attributes": {
            "NORMAL": 1,
            "POSITION": 0,
            "TEXCOORD_0": 2
          },
          "indices": 3,
          "material": 1,
          "mode": 4
        }
      ]
    },
    {
      "name": "Object_1",
      "primitives": [
        {
          "attributes": {
            "NORMAL": 5,
            "POSITION": 4,
            "TEXCOORD_0": 6
          },
          "indices": 7,
          "material": 0,
          "mode": 4
        }
      ]
    }
  ],
  "nodes": [
    {
      "children": [
        1
      ],
      "matrix": [
        1.0,
        0.0,
        0.0,
        0.0,
        0.0,
        2.220446049250313e-16,
        -1.0,
        0.0,
        0.0,
        1.0,
        2.220446049250313e-16,
        0.0,
        0.0,
        0.0,
        0.0,
        1.0
      ],
      "name": "Sketchfab_model"
    },
    {
      "children": [
        2,
        3
      ],
      "name": "SpongeBob_Goofy_Gobber_Rock.obj.cleaner.materialmerger.gles"
    },
    {
      "mesh": 0,
      "name": "Object_2"
    },
    {
      "mesh": 1,
      "name": "Object_3"
    }
  ],
  "samplers": [
    {
      "magFilter": 9729,
      "minFilter": 9987,
      "wrapS": 10497,
      "wrapT": 10497
    }
  ],
  "scene": 0,
  "scenes": [
    {
      "name": "Sketchfab_Scene",
      "nodes": [
        0
      ]
    }
  ],
  "textures": [
    {
      "sampler": 0,
      "source": 0
    },
    {
      "sampler": 0,
      "source": 1
    }
  ]
}
