{
  "accessors": [
    {
      "bufferView": 2,
      "componentType": 5126,
      "count": 10825,
      "max": [
        459.9926452636719,
        1554.6380615234375,
        142.71592712402344
      ],
      "min": [
        -463.8675842285156,
        802.08984375,
        -150.23487854003906
      ],
      "type": "VEC3"
    },
    {
      "bufferView": 2,
      "byteOffset": 129900,
      "componentType": 5126,
      "count": 10825,
      "max": [
        0.999765932559967,
        0.9994098544120789,
        0.9999953508377075
      ],
      "min": [
        -0.9999874830245972,
        -0.9953675270080566,
        -0.9999963045120239
      ],
      "type": "VEC3"
    },
    {
      "bufferView": 1,
      "componentType": 5126,
      "count": 10825,
      "max": [
        0.9700626134872437,
        -1.0121080875396729
      ],
      "min": [
        0.047427065670490265,
        -1.9651463031768799
      ],
      "type": "VEC2"
    },
    {
      "bufferView": 1,
      "byteOffset": 86600,
      "componentType": 5126,
      "count": 10825,
      "max": [
        0.9114944934844971,
        0.9998070597648621
      ],
      "min": [
        0.00019290951604489237,
        0.00019288063049316406
      ],
      "type": "VEC2"
    },
    {
      "bufferView": 0,
      "componentType": 5125,
      "count": 59097,
      "type": "SCALAR"
    }
  ],
  "asset": {
    "extras": {
      "author": "ankit73 (https://sketchfab.com/ankit73)",
      "license": "CC-BY-4.0 (http://creativecommons.org/licenses/by/4.0/)",
      "source": "https://sketchfab.com/3d-models/cloth-ani-fbb35fe0e64b473380949b279230ca18",
      "title": "Cloth Ani"
    },
    "generator": "Sketchfab-16.45.0",
    "version": "2.0"
  },
  "bufferViews": [
    {
      "buffer": 0,
      "byteLength": 236388,
      "name": "floatBufferViews",
      "target": 34963
    },
    {
      "buffer": 0,
      "byteLength": 173200,
      "byteOffset": 236388,
      "byteStride": 8,
      "name": "floatBufferViews",
      "target": 34962
    },
    {
      "buffer": 0,
      "byteLength": 259800,
      "byteOffset": 409588,
      "byteStride": 12,
      "name": "floatBufferViews",
      "target": 34962
    }
  ],
  "buffers": [
    {
      "byteLength": 669388,
      "uri": "scene.bin"
    }
  ],
  "materials": [
    {
      "doubleSided": true,
      "name": "Procedural_Fabric",
      "pbrMetallicRoughness": {
        "metallicFactor": 0.0
      }
    }
  ],
  "meshes": [
    {
      "name": "Object_0",
      "primitives": [
        {
          "attributes": {
            "NORMAL": 1,
            "POSITION": 0,
            "TEXCOORD_0": 2,
            "TEXCOORD_1": 3
          },
          "indices": 4,
          "material": 0,
          "mode": 4
        }
      ]
    }
  ],
  "nodes": [
    {
      "children": [
        1
      ],
      "matrix": [
        1.0,
        0.0,
        0.0,
        0.0,
        0.0,
        2.220446049250313e-16,
        -1.0,
        0.0,
        0.0,
        1.0,
        2.220446049250313e-16,
        0.0,
        0.0,
        0.0,
        0.0,
        1.0
      ],
      "name": "Sketchfab_model"
    },
    {
      "children": [
        2
      ],
      "name": "root"
    },
    {
      "children": [
        3
      ],
      "matrix": [
        1.0,
        0.0,
        0.0,
        0.0,
        0.0,
        2.220446049250313e-16,
        1.0,
        0.0,
        0.0,
        -1.0,
        2.220446049250313e-16,
        0.0,
        0.0,
        0.0,
        0.0,
        1.0
      ],
      "name": "GLTF_SceneRootNode"
    },
    {
      "children": [
        4
      ],
      "matrix": [
        -0.9657883212596732,
        0.0,
        -0.25933167665833345,
        0.0,
        0.0,
        1.0,
        0.0,
        0.0,
        0.25933167665833345,
        0.0,
        -0.9657883212596732,
        0.0,
        0.09919646382331848,
        1.1439265012741089,
        0.3847014605998993,
        1.0
      ],
      "name": "Empty.001_3"
    },
    {
      "children": [
        5
      ],
      "matrix": [
        -0.0009254977644566095,
        -3.2397772719525236e-05,
        -0.00016509306423314018,
        0.0,
        8.855299380561344e-12,
        0.0009230597189307773,
        -0.00018114078453227293,
        0.0,
        0.0001682418958971685,
        -0.00017822002206627983,
        -0.0009081760488742679,
        0.0,
        -0.022464849054813385,
        -1.0994246006011963,
        0.16694146394729614,
        1.0
      ],
      "name": "cloth_parent_2"
    },
    {
      "mesh": 0,
      "name": "Object_5"
    }
  ],
  "scene": 0,
  "scenes": [
    {
      "name": "Sketchfab_Scene",
      "nodes": [
        0
      ]
    }
  ]
}
